<?xml version="1.0" encoding="iso-8859-1"?>
<!-- Generator: Adobe Illustrator 19.0.0, SVG Export Plug-In . SVG Version: 6.00 Build 0)  -->
<svg version="1.1" id="Layer_1" xmlns="http://www.w3.org/2000/svg" xmlns:xlink="http://www.w3.org/1999/xlink" x="0px" y="0px" fill="white"
	 viewBox="0 0 511.999 511.999" style="enable-background:new 0 0 511.999 511.999;" xml:space="preserve">
	<g>
		<path d="M215.208,212.472c2.043,2.041,4.812,3.221,7.7,3.221c0.003,0,0.008,0,0.012,0c2.891,0,5.433-1.188,7.474-3.236
			l10.358-10.659v93.419c0,6.015,5.34,10.894,11.356,10.894h43.574c6.015,0,10.432-4.878,10.432-10.894V122.756
			c0-13.285-7.678-25.136-19.916-30.197c-12.247-5.067-25.981-2.271-35.35,7.116l-66.451,66.593
			c-4.247,4.256-4.243,11.158,0.011,15.408L215.208,212.472z M266.153,115.063c3.118-3.123,7.646-4.057,11.717-2.372
			c4.062,1.68,6.456,5.631,6.456,10.066v161.567h-21.786V175.432c0-4.41-2.435-8.384-6.51-10.068
			c-4.071-1.684-8.541-0.745-11.653,2.379l-21.513,21.576l-15.414-15.374L266.153,115.063z"/>
		<polygon points="203.484,337.701 203.473,337.701 203.482,337.704 203.484,337.702 			"/>
		<path d="M493.543,53.225c-0.646-5.625-5.767-9.811-11.381-9.645l-88.902,2.678V10.894C393.261,4.878,388.845,0,382.829,0H131.186
			c-6.015,0-11.355,4.878-11.355,10.894v32.681H29.255c-5.536,0-10.191,4.153-10.823,9.651
			C7.324,149.997,55.179,199.109,97.403,242.441c9.545,9.794,18.58,19.082,26.76,28.674c10.512,39.805,38.198,73.799,71.129,87.052
			c0.033,0.014-0.164,0.026-0.132,0.039c4.548,1.826,10.73,3.336,17.266,4.556v44.177c-41.396,10.797-72.756,48.922-72.756,94.167
			c0,6.015,5.109,10.894,11.125,10.894H363.22c6.015,0,10.663-4.878,10.663-10.894c0-45.636-31.822-84.02-74.308-94.434v-43.851
			c7.254-1.132,12.472-2.516,16.87-4.176c0.227-0.085,1.885-0.666,2.132-0.767c16.934-6.984,32.723-19.468,45.655-36.149
			c11.619-14.99,20.544-33.052,25.253-51.03c7.968-9.354,16.709-18.409,25.932-27.957
			C457.263,199.427,504.695,150.334,493.543,53.225z M119.832,234.732c-2.179-2.477-4.594-4.971-7.055-7.497
			c-39.193-40.22-79.438-81.758-73.607-161.874h80.662V234.732z M141.619,21.787h229.855v21.787H141.619V21.787z M351.543,490.213
			H162.473c5.295-36.453,36.756-64.272,74.654-64.272h39.762C314.787,425.94,346.248,453.759,351.543,490.213z M234.215,404.153
			v-38.512c8.715,0.815,16.765,1.202,21.918,1.202c5.102,0,12.942-0.377,21.657-1.172v38.483c0-0.005-0.444,0-0.9,0h-39.762
			C236.309,404.153,235.304,404.133,234.215,404.153z M371.343,245.734c-0.206,2.997-0.473,6.054-1.026,9.201
			c-0.461,2.621-1.815,8.444-1.815,8.444c-8.192,33.612-31.664,63.525-58.737,74.508c-0.125,0.045-0.154,0.093-0.278,0.142
			c-10.519,4.224-38.812,6.889-52.942,6.889c-14.145,0-42.494-2.857-53.063-7.213c-0.032,0.005-0.066,0.11-0.098,0.096
			c-26.9-10.849-50.728-40.744-58.958-74.521c-1.733-7.09-2.806-14.68-2.806-23.347V65.362h230.317
			C371.936,65.362,371.413,244.708,371.343,245.734z M399.524,227.604c-2.001,2.071-4.084,4.157-6.263,6.256V68.055l79.227-2.389
			C478.284,145.96,438.327,187.439,399.524,227.604z"/>
	</g>
</svg>
